<mxfile host="Electron" modified="2024-12-22T07:19:09.459Z" agent="Mozilla/5.0 (Windows NT 10.0; Win64; x64) AppleWebKit/537.36 (KHTML, like Gecko) draw.io/24.5.3 Chrome/124.0.6367.207 Electron/30.0.6 Safari/537.36" etag="zGrImowIGBi8r6KnALbi" version="24.5.3" type="device" pages="6">
  <diagram name="Page-1" id="8qGIpHb_dR4Ez4d7eZgl">
    <mxGraphModel dx="1105" dy="654" grid="1" gridSize="10" guides="1" tooltips="1" connect="1" arrows="1" fold="1" page="1" pageScale="1" pageWidth="827" pageHeight="1169" math="0" shadow="0">
      <root>
        <mxCell id="0" />
        <mxCell id="1" parent="0" />
        <mxCell id="lEhJh0FKrZZYawXRtamW-8" value="" style="edgeStyle=orthogonalEdgeStyle;rounded=0;orthogonalLoop=1;jettySize=auto;html=1;" parent="1" source="lEhJh0FKrZZYawXRtamW-1" target="lEhJh0FKrZZYawXRtamW-2" edge="1">
          <mxGeometry relative="1" as="geometry" />
        </mxCell>
        <mxCell id="lEhJh0FKrZZYawXRtamW-1" value="Web Service" style="rounded=0;whiteSpace=wrap;html=1;fillColor=none;" parent="1" vertex="1">
          <mxGeometry x="200" y="120" width="120" height="60" as="geometry" />
        </mxCell>
        <mxCell id="lEhJh0FKrZZYawXRtamW-9" value="" style="edgeStyle=orthogonalEdgeStyle;rounded=0;orthogonalLoop=1;jettySize=auto;html=1;" parent="1" source="lEhJh0FKrZZYawXRtamW-2" target="lEhJh0FKrZZYawXRtamW-7" edge="1">
          <mxGeometry relative="1" as="geometry" />
        </mxCell>
        <mxCell id="lEhJh0FKrZZYawXRtamW-2" value="Scheduler" style="rounded=0;whiteSpace=wrap;html=1;fillColor=none;" parent="1" vertex="1">
          <mxGeometry x="200" y="240" width="120" height="60" as="geometry" />
        </mxCell>
        <mxCell id="lEhJh0FKrZZYawXRtamW-14" style="edgeStyle=orthogonalEdgeStyle;rounded=0;orthogonalLoop=1;jettySize=auto;html=1;exitX=0.5;exitY=0;exitDx=0;exitDy=0;entryX=0;entryY=0.5;entryDx=0;entryDy=0;" parent="1" source="lEhJh0FKrZZYawXRtamW-3" target="lEhJh0FKrZZYawXRtamW-7" edge="1">
          <mxGeometry relative="1" as="geometry" />
        </mxCell>
        <mxCell id="lEhJh0FKrZZYawXRtamW-3" value="AGV1" style="rounded=0;whiteSpace=wrap;html=1;fillColor=none;" parent="1" vertex="1">
          <mxGeometry x="50" y="480" width="120" height="60" as="geometry" />
        </mxCell>
        <mxCell id="lEhJh0FKrZZYawXRtamW-13" style="edgeStyle=orthogonalEdgeStyle;rounded=0;orthogonalLoop=1;jettySize=auto;html=1;exitX=0.5;exitY=0;exitDx=0;exitDy=0;entryX=1;entryY=0.5;entryDx=0;entryDy=0;" parent="1" source="lEhJh0FKrZZYawXRtamW-6" target="lEhJh0FKrZZYawXRtamW-7" edge="1">
          <mxGeometry relative="1" as="geometry" />
        </mxCell>
        <mxCell id="lEhJh0FKrZZYawXRtamW-6" value="AGV2" style="rounded=0;whiteSpace=wrap;html=1;fillColor=none;" parent="1" vertex="1">
          <mxGeometry x="350" y="480" width="120" height="60" as="geometry" />
        </mxCell>
        <mxCell id="lEhJh0FKrZZYawXRtamW-10" style="edgeStyle=orthogonalEdgeStyle;rounded=0;orthogonalLoop=1;jettySize=auto;html=1;exitX=0;exitY=0.5;exitDx=0;exitDy=0;entryX=0.5;entryY=0;entryDx=0;entryDy=0;" parent="1" source="lEhJh0FKrZZYawXRtamW-7" target="lEhJh0FKrZZYawXRtamW-3" edge="1">
          <mxGeometry relative="1" as="geometry" />
        </mxCell>
        <mxCell id="lEhJh0FKrZZYawXRtamW-11" style="edgeStyle=orthogonalEdgeStyle;rounded=0;orthogonalLoop=1;jettySize=auto;html=1;exitX=1;exitY=0.5;exitDx=0;exitDy=0;entryX=0.5;entryY=0;entryDx=0;entryDy=0;" parent="1" source="lEhJh0FKrZZYawXRtamW-7" target="lEhJh0FKrZZYawXRtamW-6" edge="1">
          <mxGeometry relative="1" as="geometry" />
        </mxCell>
        <mxCell id="lEhJh0FKrZZYawXRtamW-12" style="edgeStyle=orthogonalEdgeStyle;rounded=0;orthogonalLoop=1;jettySize=auto;html=1;exitX=0.5;exitY=0;exitDx=0;exitDy=0;entryX=0.5;entryY=1;entryDx=0;entryDy=0;" parent="1" source="lEhJh0FKrZZYawXRtamW-7" target="lEhJh0FKrZZYawXRtamW-2" edge="1">
          <mxGeometry relative="1" as="geometry" />
        </mxCell>
        <mxCell id="SK4WHRCXfZesbD0fep9h-4" style="edgeStyle=orthogonalEdgeStyle;rounded=0;orthogonalLoop=1;jettySize=auto;html=1;exitX=0.75;exitY=0;exitDx=0;exitDy=0;entryX=1;entryY=0.5;entryDx=0;entryDy=0;" parent="1" source="lEhJh0FKrZZYawXRtamW-7" target="lEhJh0FKrZZYawXRtamW-1" edge="1">
          <mxGeometry relative="1" as="geometry">
            <Array as="points">
              <mxPoint x="290" y="330" />
              <mxPoint x="340" y="330" />
              <mxPoint x="340" y="150" />
            </Array>
          </mxGeometry>
        </mxCell>
        <mxCell id="SK4WHRCXfZesbD0fep9h-5" style="edgeStyle=orthogonalEdgeStyle;rounded=0;orthogonalLoop=1;jettySize=auto;html=1;exitX=0.25;exitY=0;exitDx=0;exitDy=0;entryX=0;entryY=0.5;entryDx=0;entryDy=0;" parent="1" source="lEhJh0FKrZZYawXRtamW-7" target="lEhJh0FKrZZYawXRtamW-1" edge="1">
          <mxGeometry relative="1" as="geometry">
            <Array as="points">
              <mxPoint x="230" y="330" />
              <mxPoint x="180" y="330" />
              <mxPoint x="180" y="150" />
            </Array>
          </mxGeometry>
        </mxCell>
        <mxCell id="lEhJh0FKrZZYawXRtamW-7" value="Data" style="rounded=0;whiteSpace=wrap;html=1;fillColor=none;" parent="1" vertex="1">
          <mxGeometry x="200" y="360" width="120" height="60" as="geometry" />
        </mxCell>
        <mxCell id="lEhJh0FKrZZYawXRtamW-15" value="KOMUNIKASI ANTAR AGV" style="text;html=1;align=center;verticalAlign=middle;resizable=0;points=[];autosize=1;strokeColor=none;fillColor=none;fontSize=16;" parent="1" vertex="1">
          <mxGeometry x="304" y="30" width="220" height="30" as="geometry" />
        </mxCell>
        <mxCell id="lEhJh0FKrZZYawXRtamW-16" value="Scheduler To AGV&lt;div&gt;&lt;div&gt;&lt;span style=&quot;background-color: initial;&quot;&gt;&lt;span style=&quot;white-space: pre;&quot;&gt;&#x9;&lt;/span&gt;1. Start/Pause&lt;/span&gt;&lt;div&gt;&lt;span style=&quot;white-space: pre;&quot;&gt;&#x9;&lt;/span&gt;2. Model&lt;/div&gt;&lt;/div&gt;&lt;div&gt;&lt;span style=&quot;white-space: pre;&quot;&gt;&#x9;&lt;/span&gt;3. Destination ID (LF) / Destination Position (Lidar)&lt;br&gt;&lt;br&gt;AGV To Scheduler&lt;br&gt;&lt;span style=&quot;white-space: pre;&quot;&gt;&#x9;&lt;/span&gt;1. AGV Running Status (Ready, Busy, Waiting)&lt;/div&gt;&lt;div&gt;&lt;span style=&quot;white-space: pre;&quot;&gt;&#x9;&lt;/span&gt;2. AGV Position (Home, On Station, On The Way)&lt;/div&gt;&lt;/div&gt;" style="rounded=0;whiteSpace=wrap;html=1;fillColor=none;align=left;verticalAlign=top;strokeColor=none;" parent="1" vertex="1">
          <mxGeometry x="450" y="120" width="320" height="130" as="geometry" />
        </mxCell>
        <mxCell id="SK4WHRCXfZesbD0fep9h-1" value="Non Scheduler Data&lt;div&gt;&lt;span style=&quot;white-space: pre;&quot;&gt;&#x9;&lt;/span&gt;1. AGV Packet Send Counter&lt;/div&gt;&lt;div&gt;&lt;span style=&quot;white-space: pre;&quot;&gt;&#x9;&lt;/span&gt;2. AGV Packet Pick Up Counter&lt;/div&gt;&lt;div&gt;&lt;span style=&quot;white-space: pre;&quot;&gt;&#x9;&lt;/span&gt;3. AGV Battery Value&lt;/div&gt;" style="rounded=0;whiteSpace=wrap;html=1;fillColor=none;align=left;verticalAlign=top;strokeColor=none;" parent="1" vertex="1">
          <mxGeometry x="450" y="250" width="220" height="70" as="geometry" />
        </mxCell>
      </root>
    </mxGraphModel>
  </diagram>
  <diagram id="ve21aLZ4bOeQ63MMO_CH" name="Page-2">
    <mxGraphModel dx="1615" dy="955" grid="1" gridSize="10" guides="1" tooltips="1" connect="1" arrows="1" fold="1" page="1" pageScale="1" pageWidth="1169" pageHeight="827" math="0" shadow="0">
      <root>
        <mxCell id="0" />
        <mxCell id="1" parent="0" />
        <mxCell id="RgK-7OCL67OF5p5zBY2y-1" value="Scheduler Algorithm Example" style="text;html=1;align=center;verticalAlign=middle;resizable=0;points=[];autosize=1;strokeColor=none;fillColor=none;fontSize=16;" parent="1" vertex="1">
          <mxGeometry x="470" y="30" width="230" height="30" as="geometry" />
        </mxCell>
        <mxCell id="RgK-7OCL67OF5p5zBY2y-2" value="" style="edgeStyle=orthogonalEdgeStyle;rounded=0;orthogonalLoop=1;jettySize=auto;html=1;" parent="1" source="RgK-7OCL67OF5p5zBY2y-3" target="RgK-7OCL67OF5p5zBY2y-5" edge="1">
          <mxGeometry relative="1" as="geometry" />
        </mxCell>
        <mxCell id="RgK-7OCL67OF5p5zBY2y-3" value="AGV Send Status" style="rounded=0;whiteSpace=wrap;html=1;fillColor=none;" parent="1" vertex="1">
          <mxGeometry x="525" y="100" width="120" height="60" as="geometry" />
        </mxCell>
        <mxCell id="RgK-7OCL67OF5p5zBY2y-4" value="" style="edgeStyle=orthogonalEdgeStyle;rounded=0;orthogonalLoop=1;jettySize=auto;html=1;" parent="1" source="RgK-7OCL67OF5p5zBY2y-5" target="RgK-7OCL67OF5p5zBY2y-10" edge="1">
          <mxGeometry relative="1" as="geometry" />
        </mxCell>
        <mxCell id="RgK-7OCL67OF5p5zBY2y-5" value="Web Service&lt;div&gt;A&lt;span style=&quot;background-color: initial;&quot;&gt;lgorithm&lt;/span&gt;&lt;/div&gt;" style="rounded=0;whiteSpace=wrap;html=1;fillColor=none;" parent="1" vertex="1">
          <mxGeometry x="525" y="220" width="120" height="60" as="geometry" />
        </mxCell>
        <mxCell id="RgK-7OCL67OF5p5zBY2y-6" value="" style="edgeStyle=orthogonalEdgeStyle;rounded=0;orthogonalLoop=1;jettySize=auto;html=1;" parent="1" source="RgK-7OCL67OF5p5zBY2y-10" target="RgK-7OCL67OF5p5zBY2y-12" edge="1">
          <mxGeometry relative="1" as="geometry" />
        </mxCell>
        <mxCell id="RgK-7OCL67OF5p5zBY2y-7" value="YES" style="edgeLabel;html=1;align=center;verticalAlign=middle;resizable=0;points=[];" parent="RgK-7OCL67OF5p5zBY2y-6" vertex="1" connectable="0">
          <mxGeometry relative="1" as="geometry">
            <mxPoint as="offset" />
          </mxGeometry>
        </mxCell>
        <mxCell id="RgK-7OCL67OF5p5zBY2y-8" value="" style="edgeStyle=orthogonalEdgeStyle;rounded=0;orthogonalLoop=1;jettySize=auto;html=1;" parent="1" source="RgK-7OCL67OF5p5zBY2y-10" target="RgK-7OCL67OF5p5zBY2y-16" edge="1">
          <mxGeometry relative="1" as="geometry" />
        </mxCell>
        <mxCell id="RgK-7OCL67OF5p5zBY2y-9" value="NO" style="edgeLabel;html=1;align=center;verticalAlign=middle;resizable=0;points=[];" parent="RgK-7OCL67OF5p5zBY2y-8" vertex="1" connectable="0">
          <mxGeometry relative="1" as="geometry">
            <mxPoint as="offset" />
          </mxGeometry>
        </mxCell>
        <mxCell id="RgK-7OCL67OF5p5zBY2y-10" value="AGV1 Ready?" style="rhombus;whiteSpace=wrap;html=1;fillColor=none;" parent="1" vertex="1">
          <mxGeometry x="525" y="330" width="120" height="80" as="geometry" />
        </mxCell>
        <mxCell id="qFmrfslil-sY1IdqdRxr-56" value="" style="edgeStyle=orthogonalEdgeStyle;rounded=0;orthogonalLoop=1;jettySize=auto;html=1;" parent="1" source="RgK-7OCL67OF5p5zBY2y-12" target="RgK-7OCL67OF5p5zBY2y-14" edge="1">
          <mxGeometry relative="1" as="geometry" />
        </mxCell>
        <mxCell id="RgK-7OCL67OF5p5zBY2y-12" value="Send Destination To AGV1" style="rounded=0;whiteSpace=wrap;html=1;fillColor=none;" parent="1" vertex="1">
          <mxGeometry x="525" y="460" width="120" height="60" as="geometry" />
        </mxCell>
        <mxCell id="qFmrfslil-sY1IdqdRxr-1" style="edgeStyle=orthogonalEdgeStyle;rounded=0;orthogonalLoop=1;jettySize=auto;html=1;exitX=0;exitY=0.5;exitDx=0;exitDy=0;entryX=1;entryY=0.5;entryDx=0;entryDy=0;" parent="1" source="RgK-7OCL67OF5p5zBY2y-14" target="RgK-7OCL67OF5p5zBY2y-15" edge="1">
          <mxGeometry relative="1" as="geometry" />
        </mxCell>
        <mxCell id="qFmrfslil-sY1IdqdRxr-31" style="edgeStyle=orthogonalEdgeStyle;rounded=0;orthogonalLoop=1;jettySize=auto;html=1;exitX=0.5;exitY=0;exitDx=0;exitDy=0;dashed=1;" parent="1" source="RgK-7OCL67OF5p5zBY2y-14" edge="1">
          <mxGeometry relative="1" as="geometry">
            <mxPoint x="405" y="410" as="targetPoint" />
          </mxGeometry>
        </mxCell>
        <mxCell id="qFmrfslil-sY1IdqdRxr-32" value="SEND BUSY STATUS&lt;br&gt;&amp;amp; CURRENT POS" style="edgeLabel;html=1;align=center;verticalAlign=middle;resizable=0;points=[];" parent="qFmrfslil-sY1IdqdRxr-31" vertex="1" connectable="0">
          <mxGeometry relative="1" as="geometry">
            <mxPoint y="5" as="offset" />
          </mxGeometry>
        </mxCell>
        <mxCell id="RgK-7OCL67OF5p5zBY2y-14" value="AGV1 Go To Station" style="rounded=0;whiteSpace=wrap;html=1;fillColor=none;" parent="1" vertex="1">
          <mxGeometry x="345" y="460" width="120" height="60" as="geometry" />
        </mxCell>
        <mxCell id="RgK-7OCL67OF5p5zBY2y-15" value="AGV1 Arrived At Station" style="rounded=0;whiteSpace=wrap;html=1;fillColor=none;" parent="1" vertex="1">
          <mxGeometry x="165" y="460" width="120" height="60" as="geometry" />
        </mxCell>
        <mxCell id="qFmrfslil-sY1IdqdRxr-7" value="" style="edgeStyle=orthogonalEdgeStyle;rounded=0;orthogonalLoop=1;jettySize=auto;html=1;" parent="1" source="RgK-7OCL67OF5p5zBY2y-16" target="qFmrfslil-sY1IdqdRxr-5" edge="1">
          <mxGeometry relative="1" as="geometry" />
        </mxCell>
        <mxCell id="qFmrfslil-sY1IdqdRxr-8" value="NO" style="edgeLabel;html=1;align=center;verticalAlign=middle;resizable=0;points=[];" parent="qFmrfslil-sY1IdqdRxr-7" vertex="1" connectable="0">
          <mxGeometry relative="1" as="geometry">
            <mxPoint as="offset" />
          </mxGeometry>
        </mxCell>
        <mxCell id="qFmrfslil-sY1IdqdRxr-54" value="" style="edgeStyle=orthogonalEdgeStyle;rounded=0;orthogonalLoop=1;jettySize=auto;html=1;" parent="1" source="RgK-7OCL67OF5p5zBY2y-16" target="qFmrfslil-sY1IdqdRxr-50" edge="1">
          <mxGeometry relative="1" as="geometry" />
        </mxCell>
        <mxCell id="RgK-7OCL67OF5p5zBY2y-16" value="AGV1 Waiting?" style="rhombus;whiteSpace=wrap;html=1;fillColor=none;" parent="1" vertex="1">
          <mxGeometry x="705" y="330" width="120" height="80" as="geometry" />
        </mxCell>
        <mxCell id="qFmrfslil-sY1IdqdRxr-46" style="edgeStyle=orthogonalEdgeStyle;rounded=0;orthogonalLoop=1;jettySize=auto;html=1;exitX=0.5;exitY=0;exitDx=0;exitDy=0;entryX=1;entryY=0.5;entryDx=0;entryDy=0;" parent="1" source="qFmrfslil-sY1IdqdRxr-5" target="RgK-7OCL67OF5p5zBY2y-5" edge="1">
          <mxGeometry relative="1" as="geometry" />
        </mxCell>
        <mxCell id="qFmrfslil-sY1IdqdRxr-47" value="YES" style="edgeLabel;html=1;align=center;verticalAlign=middle;resizable=0;points=[];" parent="qFmrfslil-sY1IdqdRxr-46" vertex="1" connectable="0">
          <mxGeometry relative="1" as="geometry">
            <mxPoint x="-45" as="offset" />
          </mxGeometry>
        </mxCell>
        <mxCell id="qFmrfslil-sY1IdqdRxr-5" value="AGV1 Busy?" style="rhombus;whiteSpace=wrap;html=1;fillColor=none;" parent="1" vertex="1">
          <mxGeometry x="885" y="330" width="120" height="80" as="geometry" />
        </mxCell>
        <mxCell id="qFmrfslil-sY1IdqdRxr-33" style="edgeStyle=orthogonalEdgeStyle;rounded=0;orthogonalLoop=1;jettySize=auto;html=1;exitX=0.5;exitY=0;exitDx=0;exitDy=0;dashed=1;" parent="1" edge="1">
          <mxGeometry relative="1" as="geometry">
            <mxPoint x="224.76" y="410" as="targetPoint" />
            <mxPoint x="224.76" y="460" as="sourcePoint" />
          </mxGeometry>
        </mxCell>
        <mxCell id="qFmrfslil-sY1IdqdRxr-34" value="SEND WAITING STATUS&lt;br&gt;&amp;amp; CURRENT POS" style="edgeLabel;html=1;align=center;verticalAlign=middle;resizable=0;points=[];" parent="qFmrfslil-sY1IdqdRxr-33" vertex="1" connectable="0">
          <mxGeometry relative="1" as="geometry">
            <mxPoint y="5" as="offset" />
          </mxGeometry>
        </mxCell>
        <mxCell id="qFmrfslil-sY1IdqdRxr-61" value="" style="edgeStyle=orthogonalEdgeStyle;rounded=0;orthogonalLoop=1;jettySize=auto;html=1;" parent="1" source="qFmrfslil-sY1IdqdRxr-50" target="qFmrfslil-sY1IdqdRxr-55" edge="1">
          <mxGeometry relative="1" as="geometry" />
        </mxCell>
        <mxCell id="qFmrfslil-sY1IdqdRxr-50" value="AGV1&lt;div&gt;Check Sensor&lt;/div&gt;" style="rounded=0;whiteSpace=wrap;html=1;fillColor=none;" parent="1" vertex="1">
          <mxGeometry x="705" y="460" width="120" height="60" as="geometry" />
        </mxCell>
        <mxCell id="qFmrfslil-sY1IdqdRxr-60" value="" style="edgeStyle=orthogonalEdgeStyle;rounded=0;orthogonalLoop=1;jettySize=auto;html=1;" parent="1" source="qFmrfslil-sY1IdqdRxr-55" target="qFmrfslil-sY1IdqdRxr-59" edge="1">
          <mxGeometry relative="1" as="geometry" />
        </mxCell>
        <mxCell id="qFmrfslil-sY1IdqdRxr-55" value="Object&lt;br&gt;Detected?" style="rhombus;whiteSpace=wrap;html=1;fillColor=none;" parent="1" vertex="1">
          <mxGeometry x="705" y="570" width="120" height="80" as="geometry" />
        </mxCell>
        <mxCell id="qFmrfslil-sY1IdqdRxr-59" value="Sens Ready Status" style="rounded=0;whiteSpace=wrap;html=1;fillColor=none;" parent="1" vertex="1">
          <mxGeometry x="705" y="700" width="120" height="60" as="geometry" />
        </mxCell>
      </root>
    </mxGraphModel>
  </diagram>
  <diagram id="HTGI7Oi1p-fzVmbUDD4m" name="Page-3">
    <mxGraphModel dx="1500" dy="887" grid="1" gridSize="10" guides="1" tooltips="1" connect="1" arrows="1" fold="1" page="1" pageScale="1" pageWidth="827" pageHeight="1169" math="0" shadow="0">
      <root>
        <mxCell id="0" />
        <mxCell id="1" parent="0" />
        <mxCell id="SeC3zQNtHR0HMJP8n0EI-3" style="edgeStyle=orthogonalEdgeStyle;rounded=0;orthogonalLoop=1;jettySize=auto;html=1;exitX=1;exitY=0.5;exitDx=0;exitDy=0;entryX=0.5;entryY=0;entryDx=0;entryDy=0;" parent="1" source="_W9jjdvjJ5yUGpG0ZXtz-32" target="8XWGG1BbEstk7GZEuX09-17" edge="1">
          <mxGeometry relative="1" as="geometry">
            <mxPoint x="810" y="350" as="targetPoint" />
            <Array as="points">
              <mxPoint x="800" y="530" />
              <mxPoint x="800" y="350" />
              <mxPoint x="180" y="350" />
            </Array>
          </mxGeometry>
        </mxCell>
        <mxCell id="YHcB_R8oxaX-xdtLc1i1-18" value="" style="edgeStyle=orthogonalEdgeStyle;rounded=0;orthogonalLoop=1;jettySize=auto;html=1;" parent="1" source="YHcB_R8oxaX-xdtLc1i1-2" target="YHcB_R8oxaX-xdtLc1i1-17" edge="1">
          <mxGeometry relative="1" as="geometry" />
        </mxCell>
        <mxCell id="YHcB_R8oxaX-xdtLc1i1-2" value="Berangkat Dari&lt;div&gt;Home Point&lt;/div&gt;" style="rounded=0;whiteSpace=wrap;html=1;fillColor=none;dashed=1;" parent="1" vertex="1">
          <mxGeometry x="300" y="620" width="120" height="60" as="geometry" />
        </mxCell>
        <mxCell id="YHcB_R8oxaX-xdtLc1i1-20" value="" style="edgeStyle=orthogonalEdgeStyle;rounded=0;orthogonalLoop=1;jettySize=auto;html=1;" parent="1" source="YHcB_R8oxaX-xdtLc1i1-4" target="YHcB_R8oxaX-xdtLc1i1-6" edge="1">
          <mxGeometry relative="1" as="geometry" />
        </mxCell>
        <mxCell id="YHcB_R8oxaX-xdtLc1i1-4" value="Mengambil Barang&lt;br&gt;&lt;div&gt;Ke Station A&lt;/div&gt;" style="rounded=0;whiteSpace=wrap;html=1;fillColor=none;dashed=1;" parent="1" vertex="1">
          <mxGeometry x="300" y="860" width="120" height="60" as="geometry" />
        </mxCell>
        <mxCell id="YHcB_R8oxaX-xdtLc1i1-21" value="" style="edgeStyle=orthogonalEdgeStyle;rounded=0;orthogonalLoop=1;jettySize=auto;html=1;" parent="1" source="YHcB_R8oxaX-xdtLc1i1-6" target="YHcB_R8oxaX-xdtLc1i1-8" edge="1">
          <mxGeometry relative="1" as="geometry" />
        </mxCell>
        <mxCell id="YHcB_R8oxaX-xdtLc1i1-6" value="Menaruh Barang&lt;div&gt;Di Station B&lt;/div&gt;" style="rounded=0;whiteSpace=wrap;html=1;fillColor=none;dashed=1;" parent="1" vertex="1">
          <mxGeometry x="300" y="980" width="120" height="60" as="geometry" />
        </mxCell>
        <mxCell id="YHcB_R8oxaX-xdtLc1i1-24" value="" style="edgeStyle=orthogonalEdgeStyle;rounded=0;orthogonalLoop=1;jettySize=auto;html=1;" parent="1" source="YHcB_R8oxaX-xdtLc1i1-8" target="YHcB_R8oxaX-xdtLc1i1-10" edge="1">
          <mxGeometry relative="1" as="geometry" />
        </mxCell>
        <mxCell id="YHcB_R8oxaX-xdtLc1i1-8" value="Mengambil Barang&lt;div&gt;Di Station B&lt;/div&gt;" style="rounded=0;whiteSpace=wrap;html=1;fillColor=none;dashed=1;" parent="1" vertex="1">
          <mxGeometry x="470" y="980" width="120" height="60" as="geometry" />
        </mxCell>
        <mxCell id="YHcB_R8oxaX-xdtLc1i1-25" style="edgeStyle=orthogonalEdgeStyle;rounded=0;orthogonalLoop=1;jettySize=auto;html=1;exitX=0.5;exitY=0;exitDx=0;exitDy=0;entryX=1;entryY=0.5;entryDx=0;entryDy=0;" parent="1" source="YHcB_R8oxaX-xdtLc1i1-10" target="YHcB_R8oxaX-xdtLc1i1-12" edge="1">
          <mxGeometry relative="1" as="geometry" />
        </mxCell>
        <mxCell id="YHcB_R8oxaX-xdtLc1i1-10" value="Menuju Ke&lt;div&gt;Station A&lt;/div&gt;" style="rounded=0;whiteSpace=wrap;html=1;fillColor=none;dashed=1;" parent="1" vertex="1">
          <mxGeometry x="640" y="980" width="120" height="60" as="geometry" />
        </mxCell>
        <mxCell id="YHcB_R8oxaX-xdtLc1i1-26" value="" style="edgeStyle=orthogonalEdgeStyle;rounded=0;orthogonalLoop=1;jettySize=auto;html=1;" parent="1" source="YHcB_R8oxaX-xdtLc1i1-12" target="YHcB_R8oxaX-xdtLc1i1-4" edge="1">
          <mxGeometry relative="1" as="geometry" />
        </mxCell>
        <mxCell id="YHcB_R8oxaX-xdtLc1i1-12" value="Menaruh Barang&lt;div&gt;Di Station A&lt;/div&gt;" style="rounded=0;whiteSpace=wrap;html=1;fillColor=none;dashed=1;" parent="1" vertex="1">
          <mxGeometry x="470" y="860" width="120" height="60" as="geometry" />
        </mxCell>
        <mxCell id="8XWGG1BbEstk7GZEuX09-11" value="" style="edgeStyle=orthogonalEdgeStyle;rounded=0;orthogonalLoop=1;jettySize=auto;html=1;" parent="1" source="8XWGG1BbEstk7GZEuX09-1" target="8XWGG1BbEstk7GZEuX09-2" edge="1">
          <mxGeometry relative="1" as="geometry" />
        </mxCell>
        <mxCell id="8XWGG1BbEstk7GZEuX09-1" value="MULAI" style="rounded=1;whiteSpace=wrap;html=1;arcSize=50;fillColor=none;" parent="1" vertex="1">
          <mxGeometry x="120" y="20" width="120" height="60" as="geometry" />
        </mxCell>
        <mxCell id="8XWGG1BbEstk7GZEuX09-4" value="" style="edgeStyle=orthogonalEdgeStyle;rounded=0;orthogonalLoop=1;jettySize=auto;html=1;" parent="1" source="8XWGG1BbEstk7GZEuX09-2" target="8XWGG1BbEstk7GZEuX09-3" edge="1">
          <mxGeometry relative="1" as="geometry" />
        </mxCell>
        <mxCell id="8XWGG1BbEstk7GZEuX09-6" style="edgeStyle=orthogonalEdgeStyle;rounded=0;orthogonalLoop=1;jettySize=auto;html=1;exitX=1;exitY=0.5;exitDx=0;exitDy=0;entryX=0;entryY=0.5;entryDx=0;entryDy=0;" parent="1" source="8XWGG1BbEstk7GZEuX09-2" target="8XWGG1BbEstk7GZEuX09-5" edge="1">
          <mxGeometry relative="1" as="geometry" />
        </mxCell>
        <mxCell id="8XWGG1BbEstk7GZEuX09-13" value="" style="edgeStyle=orthogonalEdgeStyle;rounded=0;orthogonalLoop=1;jettySize=auto;html=1;" parent="1" source="8XWGG1BbEstk7GZEuX09-2" edge="1">
          <mxGeometry relative="1" as="geometry">
            <mxPoint x="180" y="260" as="targetPoint" />
          </mxGeometry>
        </mxCell>
        <mxCell id="8XWGG1BbEstk7GZEuX09-2" value="AGV Setting Via Desktop App" style="rounded=0;whiteSpace=wrap;html=1;fillColor=none;" parent="1" vertex="1">
          <mxGeometry x="120" y="140" width="120" height="60" as="geometry" />
        </mxCell>
        <mxCell id="8XWGG1BbEstk7GZEuX09-9" value="" style="edgeStyle=orthogonalEdgeStyle;rounded=0;orthogonalLoop=1;jettySize=auto;html=1;" parent="1" source="8XWGG1BbEstk7GZEuX09-3" target="8XWGG1BbEstk7GZEuX09-7" edge="1">
          <mxGeometry relative="1" as="geometry" />
        </mxCell>
        <mxCell id="8XWGG1BbEstk7GZEuX09-3" value="Running Mode" style="rounded=0;whiteSpace=wrap;html=1;fillColor=none;dashed=1;" parent="1" vertex="1">
          <mxGeometry x="300" y="80" width="120" height="60" as="geometry" />
        </mxCell>
        <mxCell id="8XWGG1BbEstk7GZEuX09-10" value="" style="edgeStyle=orthogonalEdgeStyle;rounded=0;orthogonalLoop=1;jettySize=auto;html=1;" parent="1" source="8XWGG1BbEstk7GZEuX09-5" target="8XWGG1BbEstk7GZEuX09-8" edge="1">
          <mxGeometry relative="1" as="geometry" />
        </mxCell>
        <mxCell id="8XWGG1BbEstk7GZEuX09-5" value="Running&lt;div&gt;&lt;span style=&quot;background-color: initial;&quot;&gt;Base Speed&lt;/span&gt;&lt;/div&gt;" style="rounded=0;whiteSpace=wrap;html=1;fillColor=none;dashed=1;" parent="1" vertex="1">
          <mxGeometry x="300" y="200" width="120" height="60" as="geometry" />
        </mxCell>
        <mxCell id="8XWGG1BbEstk7GZEuX09-7" value="LineFollower Mode&lt;div&gt;Lidar Mode&lt;/div&gt;" style="rounded=0;whiteSpace=wrap;html=1;fillColor=none;dashed=1;" parent="1" vertex="1">
          <mxGeometry x="480" y="80" width="120" height="60" as="geometry" />
        </mxCell>
        <mxCell id="8XWGG1BbEstk7GZEuX09-8" value="Normal Speed&lt;div&gt;High Speed&lt;/div&gt;" style="rounded=0;whiteSpace=wrap;html=1;fillColor=none;dashed=1;" parent="1" vertex="1">
          <mxGeometry x="480" y="200" width="120" height="60" as="geometry" />
        </mxCell>
        <mxCell id="8XWGG1BbEstk7GZEuX09-15" style="edgeStyle=orthogonalEdgeStyle;rounded=0;orthogonalLoop=1;jettySize=auto;html=1;exitX=0;exitY=0.5;exitDx=0;exitDy=0;entryX=0;entryY=0.5;entryDx=0;entryDy=0;" parent="1" source="8XWGG1BbEstk7GZEuX09-14" target="8XWGG1BbEstk7GZEuX09-2" edge="1">
          <mxGeometry relative="1" as="geometry">
            <Array as="points">
              <mxPoint x="80" y="290" />
              <mxPoint x="80" y="170" />
            </Array>
          </mxGeometry>
        </mxCell>
        <mxCell id="8XWGG1BbEstk7GZEuX09-16" value="NO" style="edgeLabel;html=1;align=center;verticalAlign=middle;resizable=0;points=[];" parent="8XWGG1BbEstk7GZEuX09-15" vertex="1" connectable="0">
          <mxGeometry relative="1" as="geometry">
            <mxPoint as="offset" />
          </mxGeometry>
        </mxCell>
        <mxCell id="SeC3zQNtHR0HMJP8n0EI-4" style="edgeStyle=orthogonalEdgeStyle;rounded=0;orthogonalLoop=1;jettySize=auto;html=1;exitX=0.5;exitY=1;exitDx=0;exitDy=0;entryX=0.5;entryY=0;entryDx=0;entryDy=0;" parent="1" source="8XWGG1BbEstk7GZEuX09-14" target="8XWGG1BbEstk7GZEuX09-17" edge="1">
          <mxGeometry relative="1" as="geometry" />
        </mxCell>
        <mxCell id="SeC3zQNtHR0HMJP8n0EI-5" value="Yes" style="edgeLabel;html=1;align=center;verticalAlign=middle;resizable=0;points=[];" parent="SeC3zQNtHR0HMJP8n0EI-4" vertex="1" connectable="0">
          <mxGeometry relative="1" as="geometry">
            <mxPoint as="offset" />
          </mxGeometry>
        </mxCell>
        <mxCell id="8XWGG1BbEstk7GZEuX09-14" value="Setting&lt;div&gt;Done?&lt;/div&gt;" style="rhombus;whiteSpace=wrap;html=1;fillColor=none;" parent="1" vertex="1">
          <mxGeometry x="120" y="260" width="120" height="60" as="geometry" />
        </mxCell>
        <mxCell id="nJZ1FFet3XD_fu7AmAyC-2" value="" style="edgeStyle=orthogonalEdgeStyle;rounded=0;orthogonalLoop=1;jettySize=auto;html=1;" parent="1" source="8XWGG1BbEstk7GZEuX09-17" target="nJZ1FFet3XD_fu7AmAyC-1" edge="1">
          <mxGeometry relative="1" as="geometry" />
        </mxCell>
        <mxCell id="8XWGG1BbEstk7GZEuX09-17" value="Wait For Scheduller&lt;div&gt;Command&lt;/div&gt;" style="rounded=0;whiteSpace=wrap;html=1;fillColor=none;" parent="1" vertex="1">
          <mxGeometry x="120" y="380" width="120" height="60" as="geometry" />
        </mxCell>
        <mxCell id="nJZ1FFet3XD_fu7AmAyC-3" style="edgeStyle=orthogonalEdgeStyle;rounded=0;orthogonalLoop=1;jettySize=auto;html=1;exitX=0;exitY=0.5;exitDx=0;exitDy=0;entryX=0;entryY=0.5;entryDx=0;entryDy=0;" parent="1" source="nJZ1FFet3XD_fu7AmAyC-1" target="8XWGG1BbEstk7GZEuX09-17" edge="1">
          <mxGeometry relative="1" as="geometry">
            <Array as="points">
              <mxPoint x="80" y="530" />
              <mxPoint x="80" y="410" />
            </Array>
          </mxGeometry>
        </mxCell>
        <mxCell id="nJZ1FFet3XD_fu7AmAyC-4" value="NO" style="edgeLabel;html=1;align=center;verticalAlign=middle;resizable=0;points=[];" parent="nJZ1FFet3XD_fu7AmAyC-3" vertex="1" connectable="0">
          <mxGeometry relative="1" as="geometry">
            <mxPoint as="offset" />
          </mxGeometry>
        </mxCell>
        <mxCell id="nJZ1FFet3XD_fu7AmAyC-7" value="" style="edgeStyle=orthogonalEdgeStyle;rounded=0;orthogonalLoop=1;jettySize=auto;html=1;" parent="1" source="nJZ1FFet3XD_fu7AmAyC-1" target="nJZ1FFet3XD_fu7AmAyC-6" edge="1">
          <mxGeometry relative="1" as="geometry" />
        </mxCell>
        <mxCell id="nJZ1FFet3XD_fu7AmAyC-8" value="YES" style="edgeLabel;html=1;align=center;verticalAlign=middle;resizable=0;points=[];" parent="nJZ1FFet3XD_fu7AmAyC-7" vertex="1" connectable="0">
          <mxGeometry relative="1" as="geometry">
            <mxPoint as="offset" />
          </mxGeometry>
        </mxCell>
        <mxCell id="_W9jjdvjJ5yUGpG0ZXtz-15" value="" style="edgeStyle=orthogonalEdgeStyle;rounded=0;orthogonalLoop=1;jettySize=auto;html=1;" parent="1" source="nJZ1FFet3XD_fu7AmAyC-1" target="nJZ1FFet3XD_fu7AmAyC-6" edge="1">
          <mxGeometry relative="1" as="geometry" />
        </mxCell>
        <mxCell id="nJZ1FFet3XD_fu7AmAyC-1" value="Get&amp;nbsp;&lt;div&gt;Command?&lt;/div&gt;" style="rhombus;whiteSpace=wrap;html=1;fillColor=none;" parent="1" vertex="1">
          <mxGeometry x="120" y="500" width="120" height="60" as="geometry" />
        </mxCell>
        <mxCell id="YHcB_R8oxaX-xdtLc1i1-15" style="edgeStyle=orthogonalEdgeStyle;rounded=0;orthogonalLoop=1;jettySize=auto;html=1;exitX=1;exitY=0.5;exitDx=0;exitDy=0;entryX=0;entryY=0.5;entryDx=0;entryDy=0;" parent="1" source="nJZ1FFet3XD_fu7AmAyC-6" target="_W9jjdvjJ5yUGpG0ZXtz-18" edge="1">
          <mxGeometry relative="1" as="geometry" />
        </mxCell>
        <mxCell id="nJZ1FFet3XD_fu7AmAyC-6" value="Check Command" style="rounded=0;whiteSpace=wrap;html=1;fillColor=none;" parent="1" vertex="1">
          <mxGeometry x="120" y="620" width="120" height="60" as="geometry" />
        </mxCell>
        <mxCell id="_W9jjdvjJ5yUGpG0ZXtz-21" value="" style="edgeStyle=orthogonalEdgeStyle;rounded=0;orthogonalLoop=1;jettySize=auto;html=1;" parent="1" source="_W9jjdvjJ5yUGpG0ZXtz-18" target="_W9jjdvjJ5yUGpG0ZXtz-20" edge="1">
          <mxGeometry relative="1" as="geometry" />
        </mxCell>
        <mxCell id="_W9jjdvjJ5yUGpG0ZXtz-24" value="NO" style="edgeLabel;html=1;align=center;verticalAlign=middle;resizable=0;points=[];" parent="_W9jjdvjJ5yUGpG0ZXtz-21" vertex="1" connectable="0">
          <mxGeometry relative="1" as="geometry">
            <mxPoint as="offset" />
          </mxGeometry>
        </mxCell>
        <mxCell id="_W9jjdvjJ5yUGpG0ZXtz-27" value="" style="edgeStyle=orthogonalEdgeStyle;rounded=0;orthogonalLoop=1;jettySize=auto;html=1;" parent="1" source="_W9jjdvjJ5yUGpG0ZXtz-18" target="_W9jjdvjJ5yUGpG0ZXtz-26" edge="1">
          <mxGeometry relative="1" as="geometry" />
        </mxCell>
        <mxCell id="_W9jjdvjJ5yUGpG0ZXtz-28" value="YES" style="edgeLabel;html=1;align=center;verticalAlign=middle;resizable=0;points=[];" parent="_W9jjdvjJ5yUGpG0ZXtz-27" vertex="1" connectable="0">
          <mxGeometry relative="1" as="geometry">
            <mxPoint as="offset" />
          </mxGeometry>
        </mxCell>
        <mxCell id="_W9jjdvjJ5yUGpG0ZXtz-18" value="Run&lt;div&gt;Start?&lt;/div&gt;" style="rhombus;whiteSpace=wrap;html=1;fillColor=none;" parent="1" vertex="1">
          <mxGeometry x="300" y="380" width="120" height="60" as="geometry" />
        </mxCell>
        <mxCell id="_W9jjdvjJ5yUGpG0ZXtz-23" value="" style="edgeStyle=orthogonalEdgeStyle;rounded=0;orthogonalLoop=1;jettySize=auto;html=1;" parent="1" source="_W9jjdvjJ5yUGpG0ZXtz-20" target="_W9jjdvjJ5yUGpG0ZXtz-22" edge="1">
          <mxGeometry relative="1" as="geometry" />
        </mxCell>
        <mxCell id="_W9jjdvjJ5yUGpG0ZXtz-25" value="NO" style="edgeLabel;html=1;align=center;verticalAlign=middle;resizable=0;points=[];" parent="_W9jjdvjJ5yUGpG0ZXtz-23" vertex="1" connectable="0">
          <mxGeometry relative="1" as="geometry">
            <mxPoint as="offset" />
          </mxGeometry>
        </mxCell>
        <mxCell id="_W9jjdvjJ5yUGpG0ZXtz-30" value="" style="edgeStyle=orthogonalEdgeStyle;rounded=0;orthogonalLoop=1;jettySize=auto;html=1;" parent="1" source="_W9jjdvjJ5yUGpG0ZXtz-20" target="_W9jjdvjJ5yUGpG0ZXtz-29" edge="1">
          <mxGeometry relative="1" as="geometry" />
        </mxCell>
        <mxCell id="_W9jjdvjJ5yUGpG0ZXtz-31" value="YES" style="edgeLabel;html=1;align=center;verticalAlign=middle;resizable=0;points=[];" parent="_W9jjdvjJ5yUGpG0ZXtz-30" vertex="1" connectable="0">
          <mxGeometry relative="1" as="geometry">
            <mxPoint as="offset" />
          </mxGeometry>
        </mxCell>
        <mxCell id="_W9jjdvjJ5yUGpG0ZXtz-20" value="Run&lt;div&gt;Stop?&lt;/div&gt;" style="rhombus;whiteSpace=wrap;html=1;fillColor=none;" parent="1" vertex="1">
          <mxGeometry x="480" y="380" width="120" height="60" as="geometry" />
        </mxCell>
        <mxCell id="_W9jjdvjJ5yUGpG0ZXtz-33" value="" style="edgeStyle=orthogonalEdgeStyle;rounded=0;orthogonalLoop=1;jettySize=auto;html=1;" parent="1" source="_W9jjdvjJ5yUGpG0ZXtz-22" target="_W9jjdvjJ5yUGpG0ZXtz-32" edge="1">
          <mxGeometry relative="1" as="geometry" />
        </mxCell>
        <mxCell id="_W9jjdvjJ5yUGpG0ZXtz-34" value="YES" style="edgeLabel;html=1;align=center;verticalAlign=middle;resizable=0;points=[];" parent="_W9jjdvjJ5yUGpG0ZXtz-33" vertex="1" connectable="0">
          <mxGeometry relative="1" as="geometry">
            <mxPoint as="offset" />
          </mxGeometry>
        </mxCell>
        <mxCell id="_W9jjdvjJ5yUGpG0ZXtz-22" value="Run&lt;div&gt;Pause?&lt;/div&gt;" style="rhombus;whiteSpace=wrap;html=1;fillColor=none;" parent="1" vertex="1">
          <mxGeometry x="660" y="380" width="120" height="60" as="geometry" />
        </mxCell>
        <mxCell id="YHcB_R8oxaX-xdtLc1i1-16" value="" style="edgeStyle=orthogonalEdgeStyle;rounded=0;orthogonalLoop=1;jettySize=auto;html=1;" parent="1" source="_W9jjdvjJ5yUGpG0ZXtz-26" target="YHcB_R8oxaX-xdtLc1i1-2" edge="1">
          <mxGeometry relative="1" as="geometry" />
        </mxCell>
        <mxCell id="_W9jjdvjJ5yUGpG0ZXtz-26" value="Run AGV" style="rounded=0;whiteSpace=wrap;html=1;fillColor=none;" parent="1" vertex="1">
          <mxGeometry x="300" y="500" width="120" height="60" as="geometry" />
        </mxCell>
        <mxCell id="SeC3zQNtHR0HMJP8n0EI-2" value="" style="edgeStyle=orthogonalEdgeStyle;rounded=0;orthogonalLoop=1;jettySize=auto;html=1;" parent="1" source="_W9jjdvjJ5yUGpG0ZXtz-29" target="SeC3zQNtHR0HMJP8n0EI-1" edge="1">
          <mxGeometry relative="1" as="geometry" />
        </mxCell>
        <mxCell id="_W9jjdvjJ5yUGpG0ZXtz-29" value="Return Home" style="rounded=0;whiteSpace=wrap;html=1;fillColor=none;" parent="1" vertex="1">
          <mxGeometry x="480" y="500" width="120" height="60" as="geometry" />
        </mxCell>
        <mxCell id="_W9jjdvjJ5yUGpG0ZXtz-32" value="Pause AGV" style="rounded=0;whiteSpace=wrap;html=1;fillColor=none;" parent="1" vertex="1">
          <mxGeometry x="660" y="500" width="120" height="60" as="geometry" />
        </mxCell>
        <mxCell id="YHcB_R8oxaX-xdtLc1i1-19" value="" style="edgeStyle=orthogonalEdgeStyle;rounded=0;orthogonalLoop=1;jettySize=auto;html=1;" parent="1" source="YHcB_R8oxaX-xdtLc1i1-17" target="YHcB_R8oxaX-xdtLc1i1-4" edge="1">
          <mxGeometry relative="1" as="geometry" />
        </mxCell>
        <mxCell id="YHcB_R8oxaX-xdtLc1i1-17" value="Mengambil Carrier Ke Carrier Point" style="rounded=0;whiteSpace=wrap;html=1;fillColor=none;dashed=1;" parent="1" vertex="1">
          <mxGeometry x="300" y="740" width="120" height="60" as="geometry" />
        </mxCell>
        <mxCell id="SeC3zQNtHR0HMJP8n0EI-1" value="SELESAI" style="rounded=1;whiteSpace=wrap;html=1;arcSize=50;fillColor=none;" parent="1" vertex="1">
          <mxGeometry x="480" y="620" width="120" height="60" as="geometry" />
        </mxCell>
      </root>
    </mxGraphModel>
  </diagram>
  <diagram id="zBf20unAnq1kZ6lndH3p" name="Page-4">
    <mxGraphModel dx="1235" dy="731" grid="1" gridSize="10" guides="1" tooltips="1" connect="1" arrows="1" fold="1" page="1" pageScale="1" pageWidth="827" pageHeight="1169" math="0" shadow="0">
      <root>
        <mxCell id="0" />
        <mxCell id="1" parent="0" />
        <mxCell id="SR5QL4aJzRzJHvZXXT2d-3" value="Jalankan&lt;div&gt;Algoritma&amp;nbsp; Line Search&lt;/div&gt;" style="rounded=0;whiteSpace=wrap;html=1;fillColor=none;" parent="1" vertex="1">
          <mxGeometry x="213.91" y="110" width="120" height="60" as="geometry" />
        </mxCell>
        <mxCell id="LRuBXWYixovebCiFyNsV-2" value="" style="edgeStyle=orthogonalEdgeStyle;rounded=0;orthogonalLoop=1;jettySize=auto;html=1;" parent="1" source="y0LiaG9INE_MC_05-WM9-2" target="LRuBXWYixovebCiFyNsV-1" edge="1">
          <mxGeometry relative="1" as="geometry" />
        </mxCell>
        <mxCell id="y0LiaG9INE_MC_05-WM9-2" value="MULAI" style="rounded=1;whiteSpace=wrap;html=1;arcSize=50;fillColor=none;" parent="1" vertex="1">
          <mxGeometry x="53.91" y="10" width="120" height="60" as="geometry" />
        </mxCell>
        <mxCell id="LRuBXWYixovebCiFyNsV-7" value="" style="edgeStyle=orthogonalEdgeStyle;rounded=0;orthogonalLoop=1;jettySize=auto;html=1;" parent="1" source="LRuBXWYixovebCiFyNsV-1" target="SR5QL4aJzRzJHvZXXT2d-3" edge="1">
          <mxGeometry relative="1" as="geometry" />
        </mxCell>
        <mxCell id="LRuBXWYixovebCiFyNsV-8" value="No" style="edgeLabel;html=1;align=center;verticalAlign=middle;resizable=0;points=[];" parent="LRuBXWYixovebCiFyNsV-7" vertex="1" connectable="0">
          <mxGeometry relative="1" as="geometry">
            <mxPoint as="offset" />
          </mxGeometry>
        </mxCell>
        <mxCell id="LRuBXWYixovebCiFyNsV-21" value="" style="edgeStyle=orthogonalEdgeStyle;rounded=0;orthogonalLoop=1;jettySize=auto;html=1;" parent="1" source="LRuBXWYixovebCiFyNsV-1" target="LRuBXWYixovebCiFyNsV-16" edge="1">
          <mxGeometry relative="1" as="geometry" />
        </mxCell>
        <mxCell id="LRuBXWYixovebCiFyNsV-22" value="Yes" style="edgeLabel;html=1;align=center;verticalAlign=middle;resizable=0;points=[];" parent="LRuBXWYixovebCiFyNsV-21" vertex="1" connectable="0">
          <mxGeometry relative="1" as="geometry">
            <mxPoint as="offset" />
          </mxGeometry>
        </mxCell>
        <mxCell id="LRuBXWYixovebCiFyNsV-1" value="Line Terbaca?" style="rhombus;whiteSpace=wrap;html=1;fillColor=none;" parent="1" vertex="1">
          <mxGeometry x="53.91" y="110" width="120" height="60" as="geometry" />
        </mxCell>
        <mxCell id="LRuBXWYixovebCiFyNsV-24" style="edgeStyle=orthogonalEdgeStyle;rounded=0;orthogonalLoop=1;jettySize=auto;html=1;exitX=0;exitY=0.5;exitDx=0;exitDy=0;entryX=0;entryY=0.5;entryDx=0;entryDy=0;" parent="1" source="LRuBXWYixovebCiFyNsV-10" target="LRuBXWYixovebCiFyNsV-16" edge="1">
          <mxGeometry relative="1" as="geometry">
            <Array as="points">
              <mxPoint x="13.909999999999997" y="340" />
              <mxPoint x="13.909999999999997" y="240" />
            </Array>
          </mxGeometry>
        </mxCell>
        <mxCell id="LRuBXWYixovebCiFyNsV-25" value="No" style="edgeLabel;html=1;align=center;verticalAlign=middle;resizable=0;points=[];" parent="LRuBXWYixovebCiFyNsV-24" vertex="1" connectable="0">
          <mxGeometry relative="1" as="geometry">
            <mxPoint as="offset" />
          </mxGeometry>
        </mxCell>
        <mxCell id="LRuBXWYixovebCiFyNsV-48" value="" style="edgeStyle=orthogonalEdgeStyle;rounded=0;orthogonalLoop=1;jettySize=auto;html=1;" parent="1" source="LRuBXWYixovebCiFyNsV-10" target="LRuBXWYixovebCiFyNsV-12" edge="1">
          <mxGeometry relative="1" as="geometry" />
        </mxCell>
        <mxCell id="LRuBXWYixovebCiFyNsV-49" value="Yes" style="edgeLabel;html=1;align=center;verticalAlign=middle;resizable=0;points=[];" parent="LRuBXWYixovebCiFyNsV-48" vertex="1" connectable="0">
          <mxGeometry relative="1" as="geometry">
            <mxPoint as="offset" />
          </mxGeometry>
        </mxCell>
        <mxCell id="LRuBXWYixovebCiFyNsV-10" value="RFID Terbaca?" style="rhombus;whiteSpace=wrap;html=1;fillColor=none;" parent="1" vertex="1">
          <mxGeometry x="53.91" y="310" width="120" height="60" as="geometry" />
        </mxCell>
        <mxCell id="LRuBXWYixovebCiFyNsV-50" value="" style="edgeStyle=orthogonalEdgeStyle;rounded=0;orthogonalLoop=1;jettySize=auto;html=1;" parent="1" source="LRuBXWYixovebCiFyNsV-12" target="LRuBXWYixovebCiFyNsV-28" edge="1">
          <mxGeometry relative="1" as="geometry" />
        </mxCell>
        <mxCell id="LRuBXWYixovebCiFyNsV-12" value="Cek Jenis RFID" style="rounded=0;whiteSpace=wrap;html=1;fillColor=none;" parent="1" vertex="1">
          <mxGeometry x="213.91" y="310" width="120" height="60" as="geometry" />
        </mxCell>
        <mxCell id="LRuBXWYixovebCiFyNsV-20" value="" style="edgeStyle=orthogonalEdgeStyle;rounded=0;orthogonalLoop=1;jettySize=auto;html=1;" parent="1" source="LRuBXWYixovebCiFyNsV-16" target="LRuBXWYixovebCiFyNsV-10" edge="1">
          <mxGeometry relative="1" as="geometry" />
        </mxCell>
        <mxCell id="LRuBXWYixovebCiFyNsV-16" value="Jalan Mengikuti Garis" style="rounded=0;whiteSpace=wrap;html=1;fillColor=none;" parent="1" vertex="1">
          <mxGeometry x="53.91" y="210" width="120" height="60" as="geometry" />
        </mxCell>
        <mxCell id="LRuBXWYixovebCiFyNsV-41" value="" style="edgeStyle=orthogonalEdgeStyle;rounded=0;orthogonalLoop=1;jettySize=auto;html=1;" parent="1" source="LRuBXWYixovebCiFyNsV-28" target="LRuBXWYixovebCiFyNsV-35" edge="1">
          <mxGeometry relative="1" as="geometry" />
        </mxCell>
        <mxCell id="LRuBXWYixovebCiFyNsV-47" value="No" style="edgeLabel;html=1;align=center;verticalAlign=middle;resizable=0;points=[];" parent="LRuBXWYixovebCiFyNsV-41" vertex="1" connectable="0">
          <mxGeometry relative="1" as="geometry">
            <mxPoint as="offset" />
          </mxGeometry>
        </mxCell>
        <mxCell id="Ne9xnbG5BsBykTc5hCS6-1" style="edgeStyle=orthogonalEdgeStyle;rounded=0;orthogonalLoop=1;jettySize=auto;html=1;exitX=0.5;exitY=1;exitDx=0;exitDy=0;entryX=0.5;entryY=0;entryDx=0;entryDy=0;" edge="1" parent="1" source="LRuBXWYixovebCiFyNsV-28" target="LRuBXWYixovebCiFyNsV-36">
          <mxGeometry relative="1" as="geometry" />
        </mxCell>
        <mxCell id="LRuBXWYixovebCiFyNsV-28" value="Cross Sign&lt;div&gt;Type?&lt;/div&gt;" style="rhombus;whiteSpace=wrap;html=1;fillColor=none;" parent="1" vertex="1">
          <mxGeometry x="373.90999999999997" y="310" width="120" height="60" as="geometry" />
        </mxCell>
        <mxCell id="LRuBXWYixovebCiFyNsV-42" value="" style="edgeStyle=orthogonalEdgeStyle;rounded=0;orthogonalLoop=1;jettySize=auto;html=1;" parent="1" source="LRuBXWYixovebCiFyNsV-35" target="LRuBXWYixovebCiFyNsV-40" edge="1">
          <mxGeometry relative="1" as="geometry" />
        </mxCell>
        <mxCell id="LRuBXWYixovebCiFyNsV-46" value="No" style="edgeLabel;html=1;align=center;verticalAlign=middle;resizable=0;points=[];" parent="LRuBXWYixovebCiFyNsV-42" vertex="1" connectable="0">
          <mxGeometry relative="1" as="geometry">
            <mxPoint as="offset" />
          </mxGeometry>
        </mxCell>
        <mxCell id="Ne9xnbG5BsBykTc5hCS6-3" style="edgeStyle=orthogonalEdgeStyle;rounded=0;orthogonalLoop=1;jettySize=auto;html=1;exitX=0.5;exitY=1;exitDx=0;exitDy=0;entryX=0.5;entryY=0;entryDx=0;entryDy=0;" edge="1" parent="1" source="LRuBXWYixovebCiFyNsV-35" target="LRuBXWYixovebCiFyNsV-36">
          <mxGeometry relative="1" as="geometry" />
        </mxCell>
        <mxCell id="Ne9xnbG5BsBykTc5hCS6-4" value="Yes" style="edgeLabel;html=1;align=center;verticalAlign=middle;resizable=0;points=[];" vertex="1" connectable="0" parent="Ne9xnbG5BsBykTc5hCS6-3">
          <mxGeometry relative="1" as="geometry">
            <mxPoint as="offset" />
          </mxGeometry>
        </mxCell>
        <mxCell id="LRuBXWYixovebCiFyNsV-35" value="Turn Sign&lt;div&gt;Type?&lt;/div&gt;" style="rhombus;whiteSpace=wrap;html=1;fillColor=none;" parent="1" vertex="1">
          <mxGeometry x="533.91" y="310" width="120" height="60" as="geometry" />
        </mxCell>
        <mxCell id="mf8mZceqfTUg-DmZoYx4-4" style="edgeStyle=orthogonalEdgeStyle;rounded=0;orthogonalLoop=1;jettySize=auto;html=1;exitX=0.5;exitY=1;exitDx=0;exitDy=0;entryX=0.5;entryY=0;entryDx=0;entryDy=0;" parent="1" source="LRuBXWYixovebCiFyNsV-36" target="mf8mZceqfTUg-DmZoYx4-1" edge="1">
          <mxGeometry relative="1" as="geometry" />
        </mxCell>
        <mxCell id="LRuBXWYixovebCiFyNsV-36" value="Jalankan Handler Sesuai Sign Type" style="rounded=0;whiteSpace=wrap;html=1;fillColor=none;" parent="1" vertex="1">
          <mxGeometry x="533.91" y="410" width="120" height="60" as="geometry" />
        </mxCell>
        <mxCell id="Ne9xnbG5BsBykTc5hCS6-2" style="edgeStyle=orthogonalEdgeStyle;rounded=0;orthogonalLoop=1;jettySize=auto;html=1;exitX=0.5;exitY=1;exitDx=0;exitDy=0;entryX=0.5;entryY=0;entryDx=0;entryDy=0;" edge="1" parent="1" source="LRuBXWYixovebCiFyNsV-40" target="LRuBXWYixovebCiFyNsV-36">
          <mxGeometry relative="1" as="geometry" />
        </mxCell>
        <mxCell id="LRuBXWYixovebCiFyNsV-40" value="Position&lt;div&gt;Type?&lt;/div&gt;" style="rhombus;whiteSpace=wrap;html=1;fillColor=none;" parent="1" vertex="1">
          <mxGeometry x="693.91" y="310" width="120" height="60" as="geometry" />
        </mxCell>
        <mxCell id="mf8mZceqfTUg-DmZoYx4-1" value="SELESAI" style="rounded=1;whiteSpace=wrap;html=1;arcSize=50;fillColor=none;" parent="1" vertex="1">
          <mxGeometry x="533.91" y="510" width="120" height="60" as="geometry" />
        </mxCell>
      </root>
    </mxGraphModel>
  </diagram>
  <diagram id="F-_TgSF-WZ-SBlQX5128" name="Page-5">
    <mxGraphModel dx="1050" dy="621" grid="1" gridSize="10" guides="1" tooltips="1" connect="1" arrows="1" fold="1" page="1" pageScale="1" pageWidth="1169" pageHeight="827" math="0" shadow="0">
      <root>
        <mxCell id="0" />
        <mxCell id="1" parent="0" />
        <mxCell id="mo_2moAOcOa0va82JKKb-1" value="" style="rounded=1;whiteSpace=wrap;html=1;arcSize=24;fillColor=none;strokeWidth=2;" parent="1" vertex="1">
          <mxGeometry x="40" y="40" width="680" height="160" as="geometry" />
        </mxCell>
        <mxCell id="mo_2moAOcOa0va82JKKb-2" value="AGV Line Follower" style="text;html=1;align=center;verticalAlign=middle;resizable=0;points=[];autosize=1;strokeColor=none;fillColor=none;strokeWidth=1;fontSize=16;fontStyle=1" parent="1" vertex="1">
          <mxGeometry x="300" y="60" width="160" height="30" as="geometry" />
        </mxCell>
        <mxCell id="mo_2moAOcOa0va82JKKb-3" value="Arduino" style="rounded=1;whiteSpace=wrap;html=1;fillColor=none;" parent="1" vertex="1">
          <mxGeometry x="560" y="110" width="120" height="60" as="geometry" />
        </mxCell>
        <mxCell id="mo_2moAOcOa0va82JKKb-6" style="edgeStyle=orthogonalEdgeStyle;rounded=0;orthogonalLoop=1;jettySize=auto;html=1;exitX=1;exitY=0.5;exitDx=0;exitDy=0;entryX=0;entryY=0.5;entryDx=0;entryDy=0;startArrow=classic;startFill=1;strokeWidth=2;" parent="1" source="mo_2moAOcOa0va82JKKb-4" target="mo_2moAOcOa0va82JKKb-3" edge="1">
          <mxGeometry relative="1" as="geometry" />
        </mxCell>
        <mxCell id="mo_2moAOcOa0va82JKKb-10" value="Custom Serial" style="edgeLabel;html=1;align=center;verticalAlign=middle;resizable=0;points=[];" parent="mo_2moAOcOa0va82JKKb-6" vertex="1" connectable="0">
          <mxGeometry relative="1" as="geometry">
            <mxPoint y="-10" as="offset" />
          </mxGeometry>
        </mxCell>
        <mxCell id="mo_2moAOcOa0va82JKKb-11" value="Data Bytes" style="edgeLabel;html=1;align=center;verticalAlign=middle;resizable=0;points=[];" parent="mo_2moAOcOa0va82JKKb-6" vertex="1" connectable="0">
          <mxGeometry x="0.1483" relative="1" as="geometry">
            <mxPoint x="-6" y="10" as="offset" />
          </mxGeometry>
        </mxCell>
        <mxCell id="mo_2moAOcOa0va82JKKb-7" value="" style="edgeStyle=orthogonalEdgeStyle;rounded=0;orthogonalLoop=1;jettySize=auto;html=1;startArrow=classic;startFill=1;strokeWidth=2;" parent="1" source="mo_2moAOcOa0va82JKKb-4" target="mo_2moAOcOa0va82JKKb-5" edge="1">
          <mxGeometry relative="1" as="geometry" />
        </mxCell>
        <mxCell id="mo_2moAOcOa0va82JKKb-9" value="MQTT" style="edgeLabel;html=1;align=center;verticalAlign=middle;resizable=0;points=[];" parent="mo_2moAOcOa0va82JKKb-7" vertex="1" connectable="0">
          <mxGeometry relative="1" as="geometry">
            <mxPoint y="-10" as="offset" />
          </mxGeometry>
        </mxCell>
        <mxCell id="mo_2moAOcOa0va82JKKb-12" value="Data JSON" style="edgeLabel;html=1;align=center;verticalAlign=middle;resizable=0;points=[];" parent="mo_2moAOcOa0va82JKKb-7" vertex="1" connectable="0">
          <mxGeometry x="0.0244" y="-2" relative="1" as="geometry">
            <mxPoint y="12" as="offset" />
          </mxGeometry>
        </mxCell>
        <mxCell id="mo_2moAOcOa0va82JKKb-4" value="Desktop&lt;br&gt;AGV Control Server" style="rounded=1;whiteSpace=wrap;html=1;fillColor=none;" parent="1" vertex="1">
          <mxGeometry x="320" y="110" width="120" height="60" as="geometry" />
        </mxCell>
        <mxCell id="mo_2moAOcOa0va82JKKb-5" value="Web Service" style="rounded=1;whiteSpace=wrap;html=1;fillColor=none;" parent="1" vertex="1">
          <mxGeometry x="80" y="110" width="120" height="60" as="geometry" />
        </mxCell>
      </root>
    </mxGraphModel>
  </diagram>
  <diagram id="ATIPbHlvEj0_9HsgAZ_d" name="Page-6">
    <mxGraphModel dx="1235" dy="731" grid="1" gridSize="10" guides="1" tooltips="1" connect="1" arrows="1" fold="1" page="1" pageScale="1" pageWidth="1169" pageHeight="827" math="0" shadow="0">
      <root>
        <mxCell id="0" />
        <mxCell id="1" parent="0" />
        <mxCell id="Bz0Lz4GBqMn1f8X9GGJ_-1" value="Custom Serial AGV" style="shape=table;startSize=30;container=1;collapsible=0;childLayout=tableLayout;strokeColor=default;fontSize=14;verticalAlign=top;fillColor=none;fontStyle=1" parent="1" vertex="1">
          <mxGeometry x="40" y="40" width="920" height="203" as="geometry" />
        </mxCell>
        <mxCell id="Bz0Lz4GBqMn1f8X9GGJ_-2" value="" style="shape=tableRow;horizontal=0;startSize=0;swimlaneHead=0;swimlaneBody=0;strokeColor=inherit;top=0;left=0;bottom=0;right=0;collapsible=0;dropTarget=0;fillColor=none;points=[[0,0.5],[1,0.5]];portConstraint=eastwest;fontSize=16;" parent="Bz0Lz4GBqMn1f8X9GGJ_-1" vertex="1">
          <mxGeometry y="30" width="920" height="40" as="geometry" />
        </mxCell>
        <mxCell id="Bz0Lz4GBqMn1f8X9GGJ_-3" value="No" style="shape=partialRectangle;html=1;whiteSpace=wrap;connectable=0;strokeColor=inherit;overflow=hidden;fillColor=none;top=0;left=0;bottom=0;right=0;pointerEvents=1;fontSize=14;" parent="Bz0Lz4GBqMn1f8X9GGJ_-2" vertex="1">
          <mxGeometry width="40" height="40" as="geometry">
            <mxRectangle width="40" height="40" as="alternateBounds" />
          </mxGeometry>
        </mxCell>
        <mxCell id="Bz0Lz4GBqMn1f8X9GGJ_-4" value="Arah&amp;nbsp;&lt;div&gt;Komunikasi&lt;/div&gt;" style="shape=partialRectangle;html=1;whiteSpace=wrap;connectable=0;strokeColor=inherit;overflow=hidden;fillColor=none;top=0;left=0;bottom=0;right=0;pointerEvents=1;fontSize=14;" parent="Bz0Lz4GBqMn1f8X9GGJ_-2" vertex="1">
          <mxGeometry x="40" width="80" height="40" as="geometry">
            <mxRectangle width="80" height="40" as="alternateBounds" />
          </mxGeometry>
        </mxCell>
        <mxCell id="Bz0Lz4GBqMn1f8X9GGJ_-5" value="Keterangan" style="shape=partialRectangle;html=1;whiteSpace=wrap;connectable=0;strokeColor=inherit;overflow=hidden;fillColor=none;top=0;left=0;bottom=0;right=0;pointerEvents=1;fontSize=14;" parent="Bz0Lz4GBqMn1f8X9GGJ_-2" vertex="1">
          <mxGeometry x="120" width="200" height="40" as="geometry">
            <mxRectangle width="200" height="40" as="alternateBounds" />
          </mxGeometry>
        </mxCell>
        <mxCell id="Bz0Lz4GBqMn1f8X9GGJ_-14" value="Realisasi" style="shape=partialRectangle;html=1;whiteSpace=wrap;connectable=0;strokeColor=inherit;overflow=hidden;fillColor=none;top=0;left=0;bottom=0;right=0;pointerEvents=1;fontSize=14;" parent="Bz0Lz4GBqMn1f8X9GGJ_-2" vertex="1">
          <mxGeometry x="320" width="200" height="40" as="geometry">
            <mxRectangle width="200" height="40" as="alternateBounds" />
          </mxGeometry>
        </mxCell>
        <mxCell id="Bz0Lz4GBqMn1f8X9GGJ_-17" value="Analisa Masalah" style="shape=partialRectangle;html=1;whiteSpace=wrap;connectable=0;strokeColor=inherit;overflow=hidden;fillColor=none;top=0;left=0;bottom=0;right=0;pointerEvents=1;fontSize=14;" parent="Bz0Lz4GBqMn1f8X9GGJ_-2" vertex="1">
          <mxGeometry x="520" width="120" height="40" as="geometry">
            <mxRectangle width="120" height="40" as="alternateBounds" />
          </mxGeometry>
        </mxCell>
        <mxCell id="Bz0Lz4GBqMn1f8X9GGJ_-20" value="Solusi" style="shape=partialRectangle;html=1;whiteSpace=wrap;connectable=0;strokeColor=inherit;overflow=hidden;fillColor=none;top=0;left=0;bottom=0;right=0;pointerEvents=1;fontSize=14;" parent="Bz0Lz4GBqMn1f8X9GGJ_-2" vertex="1">
          <mxGeometry x="640" width="160" height="40" as="geometry">
            <mxRectangle width="160" height="40" as="alternateBounds" />
          </mxGeometry>
        </mxCell>
        <mxCell id="Bz0Lz4GBqMn1f8X9GGJ_-23" value="Keputusan" style="shape=partialRectangle;html=1;whiteSpace=wrap;connectable=0;strokeColor=inherit;overflow=hidden;fillColor=none;top=0;left=0;bottom=0;right=0;pointerEvents=1;fontSize=14;" parent="Bz0Lz4GBqMn1f8X9GGJ_-2" vertex="1">
          <mxGeometry x="800" width="120" height="40" as="geometry">
            <mxRectangle width="120" height="40" as="alternateBounds" />
          </mxGeometry>
        </mxCell>
        <mxCell id="Bz0Lz4GBqMn1f8X9GGJ_-6" value="" style="shape=tableRow;horizontal=0;startSize=0;swimlaneHead=0;swimlaneBody=0;strokeColor=inherit;top=0;left=0;bottom=0;right=0;collapsible=0;dropTarget=0;fillColor=none;points=[[0,0.5],[1,0.5]];portConstraint=eastwest;fontSize=16;" parent="Bz0Lz4GBqMn1f8X9GGJ_-1" vertex="1">
          <mxGeometry y="70" width="920" height="66" as="geometry" />
        </mxCell>
        <mxCell id="Bz0Lz4GBqMn1f8X9GGJ_-7" value="1" style="shape=partialRectangle;html=1;whiteSpace=wrap;connectable=0;overflow=hidden;top=0;left=0;bottom=0;right=0;pointerEvents=1;fontSize=12;fillColor=none;" parent="Bz0Lz4GBqMn1f8X9GGJ_-6" vertex="1">
          <mxGeometry width="40" height="66" as="geometry">
            <mxRectangle width="40" height="66" as="alternateBounds" />
          </mxGeometry>
        </mxCell>
        <mxCell id="Bz0Lz4GBqMn1f8X9GGJ_-8" value="Full Duplex" style="shape=partialRectangle;html=1;whiteSpace=wrap;connectable=0;overflow=hidden;top=0;left=0;bottom=0;right=0;pointerEvents=1;fontSize=12;fillColor=none;" parent="Bz0Lz4GBqMn1f8X9GGJ_-6" vertex="1">
          <mxGeometry x="40" width="80" height="66" as="geometry">
            <mxRectangle width="80" height="66" as="alternateBounds" />
          </mxGeometry>
        </mxCell>
        <mxCell id="Bz0Lz4GBqMn1f8X9GGJ_-9" value="Komunikasi dapat berjalan dua arah atau mengirim dan menerima secara bersamaan" style="shape=partialRectangle;html=1;whiteSpace=wrap;connectable=0;overflow=hidden;top=0;left=0;bottom=0;right=0;pointerEvents=1;fontSize=12;align=center;verticalAlign=middle;fillColor=none;" parent="Bz0Lz4GBqMn1f8X9GGJ_-6" vertex="1">
          <mxGeometry x="120" width="200" height="66" as="geometry">
            <mxRectangle width="200" height="66" as="alternateBounds" />
          </mxGeometry>
        </mxCell>
        <mxCell id="Bz0Lz4GBqMn1f8X9GGJ_-15" value="Arduino mengalami blocking disaat mengirim dan menerima secara bersamaan" style="shape=partialRectangle;html=1;whiteSpace=wrap;connectable=0;overflow=hidden;top=0;left=0;bottom=0;right=0;pointerEvents=1;fontSize=12;fillColor=none;" parent="Bz0Lz4GBqMn1f8X9GGJ_-6" vertex="1">
          <mxGeometry x="320" width="200" height="66" as="geometry">
            <mxRectangle width="200" height="66" as="alternateBounds" />
          </mxGeometry>
        </mxCell>
        <mxCell id="Bz0Lz4GBqMn1f8X9GGJ_-18" value="Receiver buffer pada arduino yang mengalami overflow&amp;nbsp;" style="shape=partialRectangle;html=1;whiteSpace=wrap;connectable=0;overflow=hidden;top=0;left=0;bottom=0;right=0;pointerEvents=1;fontSize=12;fillColor=none;rowspan=2;colspan=1;" parent="Bz0Lz4GBqMn1f8X9GGJ_-6" vertex="1">
          <mxGeometry x="520" width="120" height="133" as="geometry">
            <mxRectangle width="120" height="66" as="alternateBounds" />
          </mxGeometry>
        </mxCell>
        <mxCell id="Bz0Lz4GBqMn1f8X9GGJ_-21" value="Melakukan flush receiver buffer&lt;div&gt;pada Arduino&lt;/div&gt;" style="shape=partialRectangle;html=1;whiteSpace=wrap;connectable=0;overflow=hidden;top=0;left=0;bottom=0;right=0;pointerEvents=1;fontSize=12;fillColor=none;" parent="Bz0Lz4GBqMn1f8X9GGJ_-6" vertex="1">
          <mxGeometry x="640" width="160" height="66" as="geometry">
            <mxRectangle width="160" height="66" as="alternateBounds" />
          </mxGeometry>
        </mxCell>
        <mxCell id="Bz0Lz4GBqMn1f8X9GGJ_-24" value="Tidak Digunakan" style="shape=partialRectangle;html=1;whiteSpace=wrap;connectable=0;overflow=hidden;top=0;left=0;bottom=0;right=0;pointerEvents=1;fontSize=12;fillColor=none;" parent="Bz0Lz4GBqMn1f8X9GGJ_-6" vertex="1">
          <mxGeometry x="800" width="120" height="66" as="geometry">
            <mxRectangle width="120" height="66" as="alternateBounds" />
          </mxGeometry>
        </mxCell>
        <mxCell id="Bz0Lz4GBqMn1f8X9GGJ_-10" value="" style="shape=tableRow;horizontal=0;startSize=0;swimlaneHead=0;swimlaneBody=0;strokeColor=inherit;top=0;left=0;bottom=0;right=0;collapsible=0;dropTarget=0;fillColor=none;points=[[0,0.5],[1,0.5]];portConstraint=eastwest;fontSize=16;" parent="Bz0Lz4GBqMn1f8X9GGJ_-1" vertex="1">
          <mxGeometry y="136" width="920" height="67" as="geometry" />
        </mxCell>
        <mxCell id="Bz0Lz4GBqMn1f8X9GGJ_-11" value="2" style="shape=partialRectangle;html=1;whiteSpace=wrap;connectable=0;overflow=hidden;top=0;left=0;bottom=0;right=0;pointerEvents=1;fontSize=12;fillColor=none;" parent="Bz0Lz4GBqMn1f8X9GGJ_-10" vertex="1">
          <mxGeometry width="40" height="67" as="geometry">
            <mxRectangle width="40" height="67" as="alternateBounds" />
          </mxGeometry>
        </mxCell>
        <mxCell id="Bz0Lz4GBqMn1f8X9GGJ_-12" value="Half Duplex" style="shape=partialRectangle;html=1;whiteSpace=wrap;connectable=0;overflow=hidden;top=0;left=0;bottom=0;right=0;pointerEvents=1;fontSize=12;fillColor=none;" parent="Bz0Lz4GBqMn1f8X9GGJ_-10" vertex="1">
          <mxGeometry x="40" width="80" height="67" as="geometry">
            <mxRectangle width="80" height="67" as="alternateBounds" />
          </mxGeometry>
        </mxCell>
        <mxCell id="Bz0Lz4GBqMn1f8X9GGJ_-13" value="&lt;font style=&quot;font-size: 12px;&quot;&gt;Komunikasi berjalan satu arah atau mengirim dan menerima secara bergantian&lt;/font&gt;" style="shape=partialRectangle;html=1;whiteSpace=wrap;connectable=0;overflow=hidden;top=0;left=0;bottom=0;right=0;pointerEvents=1;fontSize=16;fillColor=none;" parent="Bz0Lz4GBqMn1f8X9GGJ_-10" vertex="1">
          <mxGeometry x="120" width="200" height="67" as="geometry">
            <mxRectangle width="200" height="67" as="alternateBounds" />
          </mxGeometry>
        </mxCell>
        <mxCell id="Bz0Lz4GBqMn1f8X9GGJ_-16" value="Arduino tetap mengalami blocking hanya saja dapat diminimalisir karena pengiriman data dilakukan secara bergantian&amp;nbsp;" style="shape=partialRectangle;html=1;whiteSpace=wrap;connectable=0;overflow=hidden;top=0;left=0;bottom=0;right=0;pointerEvents=1;fontSize=12;fillColor=none;" parent="Bz0Lz4GBqMn1f8X9GGJ_-10" vertex="1">
          <mxGeometry x="320" width="200" height="67" as="geometry">
            <mxRectangle width="200" height="67" as="alternateBounds" />
          </mxGeometry>
        </mxCell>
        <mxCell id="Bz0Lz4GBqMn1f8X9GGJ_-19" style="shape=partialRectangle;html=1;whiteSpace=wrap;connectable=0;overflow=hidden;top=0;left=0;bottom=0;right=0;pointerEvents=1;fontSize=12;fillColor=none;" parent="Bz0Lz4GBqMn1f8X9GGJ_-10" vertex="1" visible="0">
          <mxGeometry x="520" width="120" height="67" as="geometry">
            <mxRectangle width="120" height="67" as="alternateBounds" />
          </mxGeometry>
        </mxCell>
        <mxCell id="Bz0Lz4GBqMn1f8X9GGJ_-22" value="Melakukan pengirimin data hanya saat robot berjalan dan menerima data hanya saat robot berhenti" style="shape=partialRectangle;html=1;whiteSpace=wrap;connectable=0;overflow=hidden;top=0;left=0;bottom=0;right=0;pointerEvents=1;fontSize=12;fillColor=none;" parent="Bz0Lz4GBqMn1f8X9GGJ_-10" vertex="1">
          <mxGeometry x="640" width="160" height="67" as="geometry">
            <mxRectangle width="160" height="67" as="alternateBounds" />
          </mxGeometry>
        </mxCell>
        <mxCell id="Bz0Lz4GBqMn1f8X9GGJ_-25" value="Digunakan" style="shape=partialRectangle;html=1;whiteSpace=wrap;connectable=0;overflow=hidden;top=0;left=0;bottom=0;right=0;pointerEvents=1;fontSize=12;fillColor=none;" parent="Bz0Lz4GBqMn1f8X9GGJ_-10" vertex="1">
          <mxGeometry x="800" width="120" height="67" as="geometry">
            <mxRectangle width="120" height="67" as="alternateBounds" />
          </mxGeometry>
        </mxCell>
      </root>
    </mxGraphModel>
  </diagram>
</mxfile>
